<svg width="64" height="64" viewBox="0 0 64 64" fill="none" xmlns="http://www.w3.org/2000/svg">
  <!-- Dark navy background with rounded corners -->
  <rect width="64" height="64" rx="14" fill="#150c46"/>

  <!-- Logo mark centered: translate((64-46.8)/2, (64-18)/2) = (8.6, 23) -->
  <g transform="translate(8.6, 23)" clip-path="url(#fav-clip)">
    <path d="M11.1088 0C9.28116 0 7.52838 0.72603 6.23604 2.01838L2.01838 6.23604C0.72603 7.52838 0 9.28116 0 11.1088C0 14.9147 3.08528 18 6.89118 18C8.71884 18 10.4716 17.2739 11.764 15.9816L14.6813 13.0642C14.6813 13.0642 14.6814 13.0643 14.6813 13.0642L23.1816 4.56396C23.7988 3.94675 24.6359 3.6 25.5088 3.6C26.9702 3.6 28.2091 4.55245 28.6387 5.87044L31.3213 3.18778C30.0975 1.271 27.9516 0 25.5088 0C23.6812 0 21.9284 0.72603 20.636 2.01838L9.2184 13.436C8.60118 14.0533 7.76406 14.4 6.89118 14.4C5.0735 14.4 3.6 12.9265 3.6 11.1088C3.6 10.2359 3.94675 9.39882 4.56396 8.7816L8.7816 4.56396C9.39882 3.94675 10.2359 3.6 11.1088 3.6C12.5702 3.6 13.8091 4.55249 14.2387 5.87053L16.9214 3.18784C15.6976 1.27104 13.5517 0 11.1088 0Z" fill="url(#fav-grad0)"/>
    <path d="M23.6185 13.436C23.0013 14.0533 22.1641 14.4 21.2913 14.4C19.8301 14.4 18.5913 13.4478 18.1616 12.13L15.479 14.8126C16.7029 16.7291 18.8487 18 21.2913 18C23.1189 18 24.8717 17.2739 26.164 15.9816L37.5817 4.56396C38.1989 3.94675 39.036 3.6 39.9089 3.6C41.7266 3.6 43.2001 5.0735 43.2001 6.89118C43.2001 7.76406 42.8533 8.60118 42.2361 9.2184L38.0185 13.436C37.4013 14.0533 36.5641 14.4 35.6913 14.4C34.23 14.4 32.9911 13.4476 32.5615 12.1297L29.8789 14.8124C31.1027 16.7291 33.2485 18 35.6913 18C37.5189 18 39.2717 17.2739 40.564 15.9816L44.7817 11.764C46.074 10.4716 46.8001 8.71884 46.8001 6.89118C46.8001 3.08528 43.7148 0 39.9089 0C38.0812 0 36.3285 0.72603 35.0361 2.01838L23.6185 13.436Z" fill="url(#fav-grad1)"/>
  </g>

  <defs>
    <linearGradient id="fav-grad0" x1="0" y1="9" x2="31.3213" y2="9" gradientUnits="userSpaceOnUse">
      <stop stop-color="#873AE3"/>
      <stop offset="0.428345" stop-color="#EF4476"/>
      <stop offset="1" stop-color="#F57C3C"/>
    </linearGradient>
    <linearGradient id="fav-grad1" x1="15.479" y1="9" x2="46.8001" y2="9" gradientUnits="userSpaceOnUse">
      <stop stop-color="#873AE3"/>
      <stop offset="0.428345" stop-color="#EF4476"/>
      <stop offset="1" stop-color="#F57C3C"/>
    </linearGradient>
    <clipPath id="fav-clip">
      <rect width="46.8" height="18" fill="white"/>
    </clipPath>
  </defs>
</svg>
