<?xml version="1.0" encoding="utf-8"?>
<!-- Generator: Adobe Illustrator 24.0.2, SVG Export Plug-In . SVG Version: 6.00 Build 0)  -->
<svg version="1.1" id="Layer_1" xmlns="http://www.w3.org/2000/svg" xmlns:xlink="http://www.w3.org/1999/xlink" x="0px" y="0px"
	 viewBox="0 0 200 65" style="enable-background:new 0 0 200 65;" xml:space="preserve">
<style type="text/css">
	.st0{fill:#E3E4E6;fill-opacity:0.55;}
</style>
<path class="st0" d="M58.6,45.1c-0.3-0.7-0.6-1.5-0.9-2.2l-1.4-3.2l-0.1-0.1c-4.2-9.1-8.7-18.3-13.4-27.4l-0.2-0.4
	c-0.5-0.9-1-1.9-1.4-2.8C40.6,8.1,40,6.9,39,5.8c-0.9-1.1-2.1-2.1-3.5-2.7c-1.4-0.6-2.8-1-4.3-1c-1.5,0-3,0.3-4.3,1
	c-1.4,0.6-2.5,1.6-3.5,2.7c-0.9,1.1-1.6,2.2-2.2,3.3c-0.5,1-1,1.9-1.4,2.8l-0.2,0.4c-4.7,9.1-9.2,18.3-13.4,27.4L6,39.8
	c-0.4,1-0.9,2-1.4,3.1c-0.3,0.7-0.6,1.4-0.9,2.2c-0.8,2.1-1.1,4.3-0.8,6.5c0.3,2.2,1.2,4.3,2.6,6.1c1.4,1.8,3.2,3.1,5.3,4
	c2.1,0.8,4.4,1.1,6.6,0.9c2.1-0.3,4.2-1,6.1-2.1c2.5-1.4,4.9-3.4,7.5-6.3c2.7,2.9,5.1,4.9,7.5,6.3c2.3,1.4,5,2.1,7.7,2.2
	c3.1,0,6.2-1.1,8.5-3.1c2.4-2,3.9-4.8,4.4-7.9C59.6,49.5,59.5,47.2,58.6,45.1L58.6,45.1z M31.2,48.2c-3.3-4.2-5.4-8-6.1-11.2
	c-0.3-1.2-0.4-2.5-0.2-3.7c0.1-1,0.5-1.8,1-2.5c1.1-1.6,3.1-2.7,5.3-2.7c1,0,2.1,0.2,3,0.7c0.9,0.5,1.7,1.1,2.3,2
	c0.5,0.8,0.9,1.6,1,2.6c0.2,1.1,0.1,2.4-0.2,3.7C36.6,40.2,34.5,44,31.2,48.2z M55.5,51c-0.2,1.6-0.8,3-1.8,4.3
	c-1,1.2-2.3,2.2-3.7,2.8c-1.4,0.6-3.1,0.8-4.6,0.6c-1.5-0.2-3.1-0.7-4.6-1.6c-2.6-1.6-4.9-3.6-6.9-5.9c4-4.9,6.4-9.4,7.3-13.4
	c0.4-1.9,0.5-3.6,0.3-5.2c-0.2-1.5-0.8-2.9-1.6-4.2c-1-1.4-2.2-2.5-3.7-3.2c-1.5-0.8-3.1-1.1-4.8-1.1c-3.5,0-6.7,1.6-8.6,4.3
	c-0.9,1.3-1.4,2.7-1.6,4.2c-0.2,1.6-0.2,3.3,0.3,5.2c0.9,4,3.4,8.5,7.3,13.4c-2,2.3-4.3,4.3-6.9,5.9c-1.6,0.9-3.1,1.4-4.6,1.6
	c-2.4,0.3-4.8-0.3-6.7-1.8c-1.9-1.4-3.1-3.6-3.5-5.9c-0.2-1.5-0.1-3,0.6-4.7c0.2-0.6,0.5-1.2,0.8-1.9c0.4-1,0.9-2,1.4-3l0.1-0.1
	C14,32.2,18.5,23,23.2,14l0.2-0.4c0.5-0.9,1-1.9,1.4-2.8c0.5-1,1-1.9,1.7-2.6c0.6-0.7,1.3-1.3,2.2-1.7S30.4,6,31.4,6
	c0.9,0,1.8,0.2,2.7,0.6c0.8,0.4,1.6,1,2.2,1.7c0.7,0.8,1.2,1.7,1.7,2.6c0.5,0.9,1,1.9,1.4,2.8l0.2,0.4c4.7,9,9.2,18.2,13.3,27.2
	l0.1,0.1c0.5,1,0.9,2.1,1.4,3c0.3,0.7,0.6,1.3,0.8,1.9C55.5,48,55.7,49.5,55.5,51z M82.1,47.8c-1.4,0-2.9-0.3-4.2-0.9
	c-1.3-0.6-2.5-1.5-3.4-2.6c-2.1-2.3-3.1-5.4-3.1-8.5c0-3.2,1.1-6.2,3.2-8.7c1-1.1,2.2-2,3.5-2.6c1.3-0.6,2.8-0.9,4.3-0.9
	c1.4,0,2.8,0.3,4,0.9c1.2,0.6,2.3,1.6,3.1,2.7l0.2-3h5.6v22.8h-5.6l-0.2-3.3c-0.8,1.2-1.9,2.2-3.2,2.9C85,47.5,83.5,47.8,82.1,47.8z
	 M83.5,42.3c1.1,0,2.1-0.3,3-0.9c0.8-0.6,1.5-1.4,2.1-2.4c0.5-1,0.7-2.1,0.7-3.4c0.1-1.1-0.1-2.2-0.6-3.2c-0.5-1-1.2-1.9-2.2-2.5
	c-0.9-0.6-1.9-0.8-3-0.8c-1.1,0-2.1,0.3-3,0.8c-0.8,0.6-1.5,1.4-2.1,2.4c-0.5,1.1-0.8,2.2-0.7,3.4c-0.1,1.1,0.1,2.2,0.6,3.2
	c0.5,1,1.2,1.9,2.2,2.5C81.5,42,82.4,42.3,83.5,42.3z M104.8,18.2c0,0.7-0.1,1.3-0.4,1.8c-0.3,0.5-0.7,0.9-1.3,1.2
	c-0.6,0.3-1.1,0.4-1.8,0.4s-1.2-0.1-1.8-0.4c-0.5-0.3-1-0.7-1.3-1.2c-0.3-0.5-0.4-1.1-0.4-1.8c0-0.7,0.1-1.3,0.4-1.8
	c0.3-0.6,0.7-0.9,1.3-1.2c0.6-0.3,1.1-0.4,1.8-0.4c0.6,0,1.2,0.1,1.7,0.4c0.5,0.3,1,0.7,1.3,1.2C104.7,17,104.8,17.6,104.8,18.2z
	 M98.3,47.1V24.3h6.1v22.8L98.3,47.1L98.3,47.1z M120.6,30.3L120.6,30.3c-0.3-0.1-0.7-0.1-1-0.2c-0.4-0.1-0.7-0.1-1-0.1
	c-1.7,0-3,0.5-3.8,1.5c-0.9,1-1.3,2.5-1.3,4.4v11.2h-6.1V24.3h5.6l0.2,3.5c0.6-1.2,1.3-2.1,2.4-2.8c1-0.7,2.2-1,3.4-0.9
	c0.4,0,0.9,0,1.2,0.1c0.2,0.1,0.3,0.1,0.4,0.1V30.3z M123,47.1V14.9h6.1v12.3c0.9-1.1,1.8-1.9,3.1-2.6c1.9-0.9,4.1-1.2,6.2-0.8
	c2.1,0.4,4,1.6,5.4,3.2c2.1,2.3,3.1,5.4,3.1,8.5c0,3.2-1.1,6.2-3.2,8.7c-1,1.1-2.2,2-3.5,2.6c-1.3,0.6-2.8,0.9-4.3,0.9
	c-1.4,0-2.8-0.3-4-0.9c-1.2-0.6-2.3-1.6-3.1-2.7l-0.2,3L123,47.1L123,47.1z M134.7,42.3c1.1,0,2.1-0.3,3-0.9
	c0.8-0.6,1.5-1.4,2.1-2.4c0.5-1,0.7-2.1,0.7-3.4c0-1.3-0.2-2.4-0.7-3.4c-0.5-0.9-1.2-1.7-2.1-2.4c-0.9-0.6-1.9-0.8-3-0.8
	c-1.1,0-2.1,0.3-3,0.8c-0.9,0.6-1.5,1.4-2.1,2.4c-0.5,1.1-0.8,2.2-0.7,3.4c-0.1,1.1,0.1,2.2,0.6,3.2c0.5,1,1.2,1.9,2.2,2.5
	C132.7,42,133.6,42.3,134.7,42.3z M149.1,47.1V24.3h5.6l0.2,3c0.7-1.1,1.7-2.1,2.9-2.7c1.2-0.6,2.5-0.9,3.9-0.9c1.5,0,3,0.4,4.3,1.2
	c1.3,0.8,2.3,2,2.9,3.4c0.7,1.4,1,3.2,1,5.2v13.7h-6.1V34.3c0-1.6-0.4-2.8-1.1-3.8c-0.7-0.9-1.7-1.4-3-1.4c-0.9,0-1.7,0.2-2.4,0.6
	c-0.7,0.4-1.2,1-1.6,1.8c-0.4,0.8-0.6,1.7-0.6,2.6v13.1H149.1z M172.9,47.1V14.9h6.1v12.3c0.8-1.1,1.9-2,3.1-2.6
	c1.2-0.6,2.6-0.9,4-1c1.4,0,2.9,0.3,4.2,0.9c1.3,0.6,2.5,1.5,3.4,2.6c2,2.3,3.1,5.4,3,8.5c0,3.2-1.1,6.2-3.2,8.7
	c-1,1.1-2.2,2-3.5,2.6c-1.3,0.6-2.8,0.9-4.3,0.9c-1.4,0-2.8-0.3-4-0.9c-1.2-0.6-2.3-1.6-3.1-2.7l-0.2,3L172.9,47.1z M184.7,42.3
	c1.1,0,2.1-0.3,3-0.9c0.9-0.6,1.5-1.4,2.1-2.4c0.5-1,0.7-2.1,0.7-3.4c0.1-1.1-0.1-2.2-0.6-3.2s-1.2-1.9-2.2-2.5
	c-0.9-0.6-1.9-0.8-3-0.8c-1.1,0-2.1,0.3-3,0.8c-0.8,0.6-1.5,1.4-2.1,2.4c-0.5,1.1-0.8,2.2-0.7,3.4c-0.1,1.1,0.1,2.2,0.6,3.2
	c0.5,1,1.2,1.9,2.2,2.5C182.6,42,183.6,42.3,184.7,42.3z"/>
</svg>
