<?xml version="1.0" encoding="utf-8"?>
<!-- Generator: Adobe Illustrator 24.0.2, SVG Export Plug-In . SVG Version: 6.00 Build 0)  -->
<svg version="1.1" id="Layer_1" xmlns="http://www.w3.org/2000/svg" xmlns:xlink="http://www.w3.org/1999/xlink" x="0px" y="0px"
	 viewBox="0 0 38 31" style="enable-background:new 0 0 38 31;" xml:space="preserve">
<style type="text/css">
	.st0{fill:#E3E4E6;fill-opacity:0.55;}
</style>
<path class="st0" d="M11,4.2c1.1,0,2,0.1,2.9,0.3c0.9,0.2,1.6,0.5,2.2,0.9c0.6,0.4,1.1,1,1.4,1.7c0.3,0.7,0.5,1.6,0.5,2.6
	c0,1.1-0.3,2-0.8,2.8c-0.5,0.7-1.3,1.4-2.3,1.8c1.4,0.4,2.4,1.1,3,2.1c0.7,1,1,2.2,1,3.6c0,1.1-0.2,2.1-0.6,2.9
	c-0.4,0.8-1,1.5-1.8,2c-0.8,0.5-1.6,0.9-2.5,1.2c-0.9,0.2-1.9,0.4-2.9,0.4H0.6V4.2H11z M10.4,13.1c0.9,0,1.6-0.2,2.1-0.6
	c0.6-0.4,0.8-1.1,0.8-2c0-0.5-0.1-0.9-0.3-1.3c-0.2-0.3-0.4-0.6-0.8-0.8C12,8.2,11.6,8.1,11.3,8C10.8,8,10.4,7.9,10,7.9H5.4v5.2
	H10.4z M10.6,22.5c0.5,0,0.9,0,1.4-0.1c0.4-0.1,0.8-0.2,1.1-0.5c0.3-0.2,0.6-0.5,0.8-0.9c0.2-0.4,0.3-0.9,0.3-1.4c0-1.1-0.3-2-1-2.4
	c-0.6-0.5-1.5-0.7-2.5-0.7H5.4v6.1L10.6,22.5L10.6,22.5z M26.1,22.5c0.7,0.6,1.6,1,2.8,1c0.9,0,1.7-0.2,2.3-0.7
	c0.6-0.4,1-0.9,1.2-1.4h3.9c-0.6,1.9-1.6,3.3-2.9,4.1c-1.3,0.8-2.8,1.2-4.6,1.2c-1.3,0-2.4-0.2-3.4-0.6c-1-0.4-1.9-1-2.6-1.7
	c-0.7-0.8-1.3-1.7-1.6-2.7c-0.4-1.1-0.6-2.3-0.6-3.4c0-1.2,0.2-2.3,0.6-3.4c0.4-1,0.9-1.9,1.7-2.7c0.7-0.8,1.6-1.4,2.6-1.8
	c1.1-0.4,2.2-0.7,3.3-0.7c1.4,0,2.5,0.3,3.6,0.8c1,0.5,1.8,1.2,2.5,2.1c0.7,0.9,1.1,1.9,1.4,3c0.3,1.1,0.4,2.3,0.3,3.6H25
	C25,20.6,25.4,21.8,26.1,22.5z M31.1,14c-0.5-0.6-1.4-0.9-2.5-0.9c-0.7,0-1.3,0.1-1.8,0.4c-0.4,0.2-0.8,0.5-1.1,0.9
	c-0.3,0.3-0.5,0.7-0.6,1.1c-0.1,0.3-0.2,0.7-0.2,1.1h7.2C32,15.4,31.6,14.6,31.1,14z M24.1,5.6h9v2.2h-9V5.6z"/>
</svg>
