<?xml version="1.0" encoding="utf-8"?>
<!-- Generator: Adobe Illustrator 24.0.2, SVG Export Plug-In . SVG Version: 6.00 Build 0)  -->
<svg version="1.1" id="Layer_1" xmlns="http://www.w3.org/2000/svg" xmlns:xlink="http://www.w3.org/1999/xlink" x="0px" y="0px"
	 viewBox="0 0 38 31" style="enable-background:new 0 0 38 31;" xml:space="preserve">
<style type="text/css">
	.st0{fill:none;stroke:#E3E4E6;stroke-width:2.8;stroke-linecap:round;stroke-linejoin:round;stroke-opacity:0.55;}
</style>
<path class="st0" d="M32.6,15.4c0,1.8-0.4,3.7-1.1,5.4c-0.7,1.7-1.7,3.2-3.1,4.5c-1.3,1.3-2.8,2.3-4.5,3c-1.7,0.7-3.5,1.1-5.3,1.1
	c-7.7,0-14-6.3-14-14c0-3.6,1.4-7,3.8-9.6c1.3-1.4,2.9-2.5,4.6-3.2c1.7-0.7,3.6-1.1,5.5-1.1c1.8,0,3.6,0.4,5.3,1.1
	c1.7,0.7,3.2,1.7,4.5,3 M32.6,15.4c0-1.8-0.4-3.7-1.1-5.4c-0.7-1.7-1.7-3.2-3.1-4.5 M32.6,15.4c-2,0-7.7-0.8-12.7,1.4
	c-5.5,2.4-9.4,6.1-11.2,8.5 M32.6,15.4c0,1.7-0.3,3.4-0.9,4.9 M28.5,5.5c-1.2-1.2-2.7-2.2-4.3-2.9 M13.3,2.4c2.2,2,7,7.2,8.7,12.3
	c1.8,5.1,2.4,11.4,2.8,13.2 M4.7,13.7c2.6,0.2,9.6,0.3,14.1-1.6s8.3-5.4,9.7-6.5 M5.6,20.8c1.2,3,3.5,5.5,6.3,7"/>
</svg>
