<?xml version="1.0" encoding="utf-8"?>
<!-- Generator: Adobe Illustrator 24.0.2, SVG Export Plug-In . SVG Version: 6.00 Build 0)  -->
<svg version="1.1" id="Layer_1" xmlns="http://www.w3.org/2000/svg" xmlns:xlink="http://www.w3.org/1999/xlink" x="0px" y="0px"
	 viewBox="0 0 38 31" style="enable-background:new 0 0 38 31;" xml:space="preserve">
<style type="text/css">
	.st0{fill:#E3E4E6;fill-opacity:0.55;}
</style>
<path class="st0" d="M37,9.6v14.7c0,1.5-0.6,2.9-1.6,4c-1,1.1-2.4,1.7-3.9,1.8l-0.3,0H6.9c-1.5,0-2.9-0.6-4-1.6
	c-1.1-1-1.7-2.4-1.8-3.9l0-0.3V9.6l17.4,9.1c0.2,0.1,0.4,0.2,0.6,0.2s0.4-0.1,0.6-0.2L37,9.6z"/>
<path class="st0" d="M6.8,1.4h24.3c1.5,0,2.8,0.5,3.9,1.5c1.1,1,1.8,2.3,1.9,3.8L19,16L1,6.6C1.2,5.2,1.8,3.9,2.8,3
	c1-1,2.3-1.5,3.7-1.6L6.8,1.4h24.3H6.8z"/>
</svg>
