<?xml version="1.0" encoding="utf-8"?>
<!-- Generator: Adobe Illustrator 24.0.2, SVG Export Plug-In . SVG Version: 6.00 Build 0)  -->
<svg version="1.1" id="Layer_1" xmlns="http://www.w3.org/2000/svg" xmlns:xlink="http://www.w3.org/1999/xlink" x="0px" y="0px"
	 viewBox="0 0 200 65" style="enable-background:new 0 0 200 65;" xml:space="preserve">
<style type="text/css">
	.st0{clip-path:url(#SVGID_2_);}
	.st1{fill:#E3E4E6;fill-opacity:0.55;}
</style>
<g>
	<defs>
		<rect id="SVGID_1_" x="13.3" y="6.4" width="172.9" height="51.9"/>
	</defs>
	<clipPath id="SVGID_2_">
		<use xlink:href="#SVGID_1_"  style="overflow:visible;"/>
	</clipPath>
	<g class="st0">
		<path class="st1" d="M141.8,56.7l14.4-16l-14.4-16H157l7.1,7.8l6.9-7.8h14.7l-14.3,15.9l14.5,16h-15.3l-7.1-7.8l-7,7.8H141.8z"/>
		<path class="st1" d="M141.8,17.7h-16.3v7.2h16.3v10.8h-16.3v9.9h16.3v11.2h-28.3V6.4h28.3V17.7z"/>
		<path class="st1" d="M101.5,6.4V27h-0.1c-2.6-3-6-4-9.8-4c-7.9,0-13.8,5.3-15.9,12.2c-2.4-7.7-8.5-12.4-17.5-12.4
			c-7.4,0-13.2,3.3-16.2,8.6v-6.6H26.8v-7.2h16.6V6.4H13.3v50.3h13.6V35.6h13.5c-0.4,1.6-0.6,3.2-0.6,5c0,10.5,8.1,17.9,18.5,17.9
			c8.7,0,14.5-4,17.5-11.4H64.1c-1.6,2.2-2.8,2.9-5.9,2.9c-3.6,0-6.8-3.1-6.8-6.8h23.7c1,8.3,7.6,15.5,16.7,15.5
			c3.9,0,7.5-1.9,9.7-5.1h0.1v3.3h12V6.4H101.5z M51.8,35.7c0.8-3.2,3.3-5.3,6.4-5.3c3.5,0,5.8,2,6.5,5.3
			C65,35.7,51.8,35.7,51.8,35.7z M94.3,49.1c-4.4,0-7.1-4-7.1-8.3c0-4.5,2.4-8.9,7.1-8.9c4.9,0,6.9,4.3,6.9,8.9
			C101.2,45.1,99.1,49.1,94.3,49.1z"/>
	</g>
</g>
</svg>
