<?xml version="1.0" encoding="utf-8"?>
<!-- Generator: Adobe Illustrator 24.0.2, SVG Export Plug-In . SVG Version: 6.00 Build 0)  -->
<svg version="1.1" id="Layer_1" xmlns="http://www.w3.org/2000/svg" xmlns:xlink="http://www.w3.org/1999/xlink" x="0px" y="0px"
	 viewBox="0 0 200 65" style="enable-background:new 0 0 200 65;" xml:space="preserve">
<style type="text/css">
	.st0{fill:#E3E4E6;fill-opacity:0.55;}
</style>
<path class="st0" d="M86.7,34c0,8.4-6.7,14.6-14.8,14.6C63.7,48.6,57,42.4,57,34c0-8.5,6.7-14.6,14.8-14.6
	C80.1,19.4,86.7,25.6,86.7,34z M80.2,34c0-5.2-3.9-8.8-8.3-8.8c-4.5,0-8.3,3.6-8.3,8.8c0,5.2,3.9,8.8,8.3,8.8
	C76.4,42.9,80.2,39.2,80.2,34z"/>
<path class="st0" d="M118.8,34c0,8.4-6.7,14.6-14.8,14.6c-8.2,0-14.8-6.2-14.8-14.6c0-8.5,6.7-14.6,14.8-14.6
	C112.1,19.4,118.8,25.6,118.8,34z M112.3,34c0-5.2-3.9-8.8-8.3-8.8s-8.3,3.6-8.3,8.8c0,5.2,3.9,8.8,8.3,8.8S112.3,39.2,112.3,34z"/>
<path class="st0" d="M149.5,20.3v26.2c0,10.8-6.4,15.2-14.1,15.2c-7.2,0-11.5-4.7-13.1-8.6l5.7-2.3c1,2.4,3.5,5.2,7.5,5.2
	c4.9,0,7.9-3,7.9-8.5v-2.1h-0.2c-1.5,1.8-4.3,3.3-7.8,3.3c-7.4,0-14.2-6.4-14.2-14.5c0-8.2,6.8-14.6,14.2-14.6
	c3.5,0,6.3,1.5,7.8,3.3h0.2v-2.4L149.5,20.3L149.5,20.3z M143.8,34.1c0-5.1-3.5-8.9-7.9-8.9c-4.5,0-8.2,3.8-8.2,8.9
	c0,5.1,3.8,8.8,8.2,8.8C140.3,42.9,143.8,39.2,143.8,34.1z"/>
<path class="st0" d="M159.6,5v42.7h-6.3V5H159.6z"/>
<path class="st0" d="M184.3,38.8l5,3.3c-1.6,2.4-5.6,6.5-12.3,6.5c-8.4,0-14.7-6.4-14.7-14.6c0-8.7,6.3-14.6,14-14.6
	c7.7,0,11.4,6,12.7,9.3l0.7,1.7l-19.8,8.1c1.5,2.9,3.9,4.4,7.2,4.4C180.4,42.9,182.7,41.3,184.3,38.8z M168.8,33.6l13.2-5.4
	c-0.7-1.8-2.9-3.1-5.5-3.1C173.2,25.1,168.7,28,168.8,33.6z"/>
<path class="st0" d="M33.1,30.2v-6.2h21.2c0.2,1.1,0.3,2.4,0.3,3.7c0,4.6-1.3,10.4-5.4,14.5c-4,4.1-9.2,6.4-16,6.4
	C20.4,48.6,9.7,38.4,9.7,26S20.4,3.3,33.1,3.3c7,0,12,2.7,15.7,6.2l-4.4,4.4c-2.7-2.5-6.3-4.4-11.3-4.4c-9.2,0-16.5,7.3-16.5,16.5
	c0,9.1,7.2,16.5,16.5,16.5c6,0,9.4-2.4,11.6-4.5c1.8-1.7,2.9-4.2,3.4-7.7L33.1,30.2z"/>
</svg>
