<?xml version="1.0" encoding="utf-8"?>
<!-- Generator: Adobe Illustrator 24.0.2, SVG Export Plug-In . SVG Version: 6.00 Build 0)  -->
<svg version="1.1" id="Layer_1" xmlns="http://www.w3.org/2000/svg" xmlns:xlink="http://www.w3.org/1999/xlink" x="0px" y="0px"
	 viewBox="0 0 38 31" style="enable-background:new 0 0 38 31;" xml:space="preserve">
<style type="text/css">
	.st0{fill-rule:evenodd;clip-rule:evenodd;fill:#E3E4E6;fill-opacity:0.55;}
</style>
<path class="st0" d="M15,11.6h5.2v2.3c0.7-1.3,2.7-2.5,5.6-2.5c5.5,0,6.8,2.7,6.8,7.6V28H27v-8c0-2.8-0.7-4.4-2.7-4.4
	c-2.6,0-3.7,1.7-3.7,4.4v8H15V11.6z"/>
<path class="st0" d="M5.4,27.8H11V11.4H5.4V27.8z"/>
<path class="st0" d="M11.8,6c0,0.4-0.1,0.8-0.3,1.2c-0.2,0.4-0.4,0.7-0.8,1c-0.7,0.6-1.6,0.9-2.5,0.9c-1,0-1.9-0.3-2.5-0.9
	C5.3,8,5.1,7.7,4.9,7.3C4.7,6.9,4.6,6.5,4.6,6c0-0.9,0.4-1.7,1.1-2.3c0.7-0.6,1.6-0.9,2.5-0.9c1,0,1.9,0.3,2.5,0.9
	C11.4,4.4,11.8,5.2,11.8,6z"/>
</svg>
