<?xml version="1.0" encoding="utf-8"?>
<!-- Generator: Adobe Illustrator 24.0.2, SVG Export Plug-In . SVG Version: 6.00 Build 0)  -->
<svg version="1.1" id="Layer_1" xmlns="http://www.w3.org/2000/svg" xmlns:xlink="http://www.w3.org/1999/xlink" x="0px" y="0px"
	 viewBox="0 0 100 30" style="enable-background:new 0 0 100 30;" xml:space="preserve">
<style type="text/css">
	.st0{fill:url(#SVGID_1_);}
	.st1{fill:url(#SVGID_2_);}
	.st2{fill:url(#SVGID_3_);}
	.st3{fill:url(#SVGID_4_);}
	.st4{fill:url(#SVGID_5_);}
	.st5{fill:url(#SVGID_6_);}
</style>
<linearGradient id="SVGID_1_" gradientUnits="userSpaceOnUse" x1="345.0973" y1="-266.2129" x2="435.7791" y2="-315.3007" gradientTransform="matrix(1 0 0 -1 -346 -259)">
	<stop  offset="0" style="stop-color:#BC3CD8"/>
	<stop  offset="1" style="stop-color:#C54B8C"/>
</linearGradient>
<path class="st0" d="M9.1,4.6c3.8,0,6.9,3.1,6.9,6.9c0,3.8-3.1,6.9-6.9,6.9H6.2V9.2H2.5v13h6.6c5.9,0,10.7-4.8,10.7-10.7
	C19.7,5.7,15,0.9,9.1,0.9H2.5v3.7H9.1z"/>
<linearGradient id="SVGID_2_" gradientUnits="userSpaceOnUse" x1="349.2846" y1="-258.4774" x2="439.9665" y2="-307.5652" gradientTransform="matrix(1 0 0 -1 -346 -259)">
	<stop  offset="0" style="stop-color:#BC3CD8"/>
	<stop  offset="1" style="stop-color:#C54B8C"/>
</linearGradient>
<path class="st1" d="M21.5,13.9c0,4.6,3.7,8.3,8.4,8.3c1,0,1.9-0.2,2.8-0.5v-4.2c-0.8,0.6-1.7,1-2.8,1c-2.7,0-4.6-2.2-4.6-4.6
	c0-2.5,2-4.7,4.6-4.7c1.8,0,3.3,1,4.1,2.5h-6.5v3.7h10.6c0.1-0.5,0.2-1.1,0.2-1.6c0-1.5-0.4-3.5-2-5.3c-1.5-1.8-3.8-3-6.4-3
	C25.3,5.5,21.5,9.3,21.5,13.9z"/>
<linearGradient id="SVGID_3_" gradientUnits="userSpaceOnUse" x1="353.1151" y1="-251.4012" x2="443.7969" y2="-300.4891" gradientTransform="matrix(1 0 0 -1 -346 -259)">
	<stop  offset="0" style="stop-color:#BC3CD8"/>
	<stop  offset="1" style="stop-color:#C54B8C"/>
</linearGradient>
<path class="st2" d="M46.1,18.5l8.1-13H39.7v3.7h7.8l-8.1,13h15.6v-3.7H46.1z"/>
<linearGradient id="SVGID_4_" gradientUnits="userSpaceOnUse" x1="356.663" y1="-244.847" x2="447.3449" y2="-293.9349" gradientTransform="matrix(1 0 0 -1 -346 -259)">
	<stop  offset="0" style="stop-color:#BC3CD8"/>
	<stop  offset="1" style="stop-color:#C54B8C"/>
</linearGradient>
<path class="st3" d="M57,5.5v16.7h3.7V5.5C59.3,6,58.5,6,57,5.5z M58.8,4.6c1,0,1.9-0.8,1.9-1.9c0-1-0.8-1.9-1.9-1.9
	c-1,0-1.9,0.8-1.9,1.9C57,3.8,57.8,4.6,58.8,4.6z"/>
<linearGradient id="SVGID_5_" gradientUnits="userSpaceOnUse" x1="357.3662" y1="-243.5479" x2="448.0481" y2="-292.6358" gradientTransform="matrix(1 0 0 -1 -346 -259)">
	<stop  offset="0" style="stop-color:#BC3CD8"/>
	<stop  offset="1" style="stop-color:#C54B8C"/>
</linearGradient>
<path class="st4" d="M64.1,17.1c1.3,3,4.2,5.1,7.7,5.1c4.6,0,8.3-3.7,8.3-8.3c0-4.6-3.7-8.3-8.3-8.3s-8.3,3.7-8.3,8.3
	C63.4,15,63.6,16.1,64.1,17.1z M67.1,13.9c0-2.5,2.1-4.6,4.6-4.6s4.6,2.1,4.6,4.6c0,2.5-2.1,4.6-4.6,4.6S67.1,16.4,67.1,13.9z
	 M63.5,22.2c0.7,3.8,4.2,6.7,8.2,6.7c3.9,0,7.4-2.8,8.2-6.7H76c-0.7,1.8-2.4,3-4.3,3c-1.9,0-3.6-1.2-4.3-3H63.5z M69.2,13.9
	c0,1.4,1.2,2.5,2.5,2.5s2.5-1.2,2.5-2.5c0-1.4-1.2-2.5-2.5-2.5S69.2,12.5,69.2,13.9z"/>
<linearGradient id="SVGID_6_" gradientUnits="userSpaceOnUse" x1="362.337" y1="-234.3652" x2="453.0189" y2="-283.4531" gradientTransform="matrix(1 0 0 -1 -346 -259)">
	<stop  offset="0" style="stop-color:#BC3CD8"/>
	<stop  offset="1" style="stop-color:#C54B8C"/>
</linearGradient>
<path class="st5" d="M86.5,22.2v-9.3c0-2,1.6-3.7,3.7-3.7c2.1,0,3.7,1.7,3.7,3.7v9.3h3.7v-9.3c0-4.1-3.3-7.4-7.4-7.4
	c-4.1,0-7.4,3.3-7.4,7.4v9.3H86.5z"/>
</svg>
