<?xml version="1.0" encoding="utf-8"?>
<!-- Generator: Adobe Illustrator 24.0.2, SVG Export Plug-In . SVG Version: 6.00 Build 0)  -->
<svg version="1.1" id="Layer_1" xmlns="http://www.w3.org/2000/svg" xmlns:xlink="http://www.w3.org/1999/xlink" x="0px" y="0px"
	 viewBox="0 0 275 65" style="enable-background:new 0 0 275 65;" xml:space="preserve">
<style type="text/css">
	.st0{clip-path:url(#SVGID_2_);}
	.st1{fill:#E3E4E6;fill-opacity:0.55;}
</style>
<g>
	<defs>
		<rect id="SVGID_1_" x="5.3" y="4.3" width="263.6" height="56.2"/>
	</defs>
	<clipPath id="SVGID_2_">
		<use xlink:href="#SVGID_1_"  style="overflow:visible;"/>
	</clipPath>
	<g class="st0">
		<path class="st1" d="M98.4,36.7l-1.6,4.4h-0.1c-0.3-1-0.7-2.5-1.5-4.4l-8.4-21.1h-8.2v33.7h5.5V28.6c0-1.3,0-2.8,0-4.6
			c0-0.9-0.1-1.6-0.2-2.1h0.1c0.3,1.3,0.6,2.3,0.8,2.9l10.1,24.6h3.8l10-24.8c0.2-0.6,0.4-1.7,0.7-2.7h0.1c-0.1,2.5-0.2,4.7-0.3,6.1
			v21.3h5.8V15.6H107L98.4,36.7z M120.5,25.1h5.7v24.1h-5.7V25.1z M123.3,14.9c-1,0-1.7,0.3-2.4,1c-0.7,0.6-1,1.4-1,2.4
			c0,0.9,0.3,1.7,1,2.3c0.7,0.6,1.4,0.9,2.4,0.9s1.8-0.3,2.4-0.9c0.7-0.6,1-1.4,1-2.3c0-0.9-0.3-1.7-1-2.4
			C125.2,15.2,124.4,14.9,123.3,14.9z M146.3,24.9c-1-0.2-2.1-0.3-3.2-0.3c-2.6,0-4.9,0.6-6.9,1.7s-3.5,2.7-4.5,4.7
			c-1,2-1.6,4.3-1.6,7c0,2.3,0.5,4.4,1.5,6.2c1,1.8,2.4,3.3,4.3,4.3c1.8,1,3.9,1.5,6.2,1.5c2.7,0,5-0.6,6.9-1.6l0,0V43l-0.2,0.2
			c-0.8,0.6-1.8,1.1-2.7,1.4c-1,0.3-1.9,0.5-2.7,0.5c-2.3,0-4.1-0.7-5.3-2.1c-1.3-1.4-2-3.3-2-5.7c0-2.5,0.7-4.4,2-5.9
			c1.4-1.4,3.1-2.2,5.3-2.2c1.8,0,3.7,0.6,5.4,1.8l0.2,0.2v-5.5l0,0C148.2,25.4,147.4,25.1,146.3,24.9z M165,24.7
			c-1.4,0-2.7,0.4-3.8,1.4c-1,0.8-1.6,1.9-2.2,3.3h0v-4.2h-5.7v24.1h5.7V36.9c0-2.1,0.4-3.8,1.4-5.1c1-1.3,2.2-2,3.7-2
			c0.5,0,1,0.1,1.7,0.2c0.6,0.2,1,0.3,1.4,0.6l0.2,0.2v-5.7l-0.1,0C166.7,24.8,165.9,24.7,165,24.7z M180.4,24.5
			c-4,0-7.2,1.2-9.4,3.5c-2.3,2.3-3.4,5.5-3.4,9.5c0,3.7,1.1,6.8,3.3,9c2.2,2.2,5.1,3.3,8.9,3.3c3.9,0,7-1.2,9.2-3.5
			c2.3-2.4,3.4-5.5,3.4-9.4c0-3.8-1-6.9-3.2-9.1C187.2,25.6,184.2,24.5,180.4,24.5z M185,43.1c-1,1.3-2.7,2-4.8,2
			c-2.1,0-3.7-0.7-4.9-2.1c-1.2-1.3-1.7-3.3-1.7-5.8c0-2.6,0.6-4.5,1.7-5.9c1.2-1.4,2.8-2.1,4.8-2.1c2,0,3.6,0.7,4.7,2
			c1.1,1.4,1.7,3.3,1.7,5.9C186.5,39.7,186.1,41.7,185,43.1z M205.1,35.1c-1.8-0.7-2.9-1.3-3.4-1.8c-0.4-0.4-0.7-1-0.7-1.8
			c0-0.7,0.3-1.3,0.9-1.7c0.7-0.4,1.4-0.7,2.5-0.7c1,0,2,0.2,2.9,0.4c1,0.3,1.8,0.7,2.5,1.2l0.2,0.2v-5.3l-0.1,0
			c-0.7-0.3-1.5-0.5-2.6-0.7c-1-0.2-2-0.3-2.8-0.3c-2.7,0-4.9,0.7-6.7,2.1c-1.7,1.4-2.6,3.2-2.6,5.3c0,1.1,0.2,2.1,0.6,3
			c0.4,0.8,1,1.6,1.7,2.3c0.8,0.6,1.9,1.3,3.5,2c1.3,0.6,2.3,1,2.9,1.3c0.6,0.3,1,0.7,1.3,1c0.2,0.3,0.3,0.8,0.3,1.4
			c0,1.6-1.2,2.4-3.7,2.4c-1,0-2-0.2-3.1-0.6c-1.2-0.4-2.3-1-3.2-1.6l-0.2-0.2v5.5l0.1,0c0.8,0.4,1.8,0.7,3.1,1
			c1.2,0.2,2.3,0.4,3.3,0.4c2.9,0,5.3-0.7,7-2.1c1.7-1.4,2.7-3.2,2.7-5.5c0-1.6-0.4-3-1.4-4.1C208.9,37,207.4,36,205.1,35.1z
			 M226.6,24.5c-4,0-7.2,1.2-9.4,3.5c-2.2,2.3-3.4,5.5-3.4,9.5c0,3.7,1.1,6.8,3.3,9c2.2,2.2,5.1,3.3,8.9,3.3c3.9,0,7-1.2,9.2-3.5
			c2.3-2.4,3.4-5.5,3.4-9.4c0-3.8-1-6.9-3.2-9.1C233.3,25.6,230.3,24.5,226.6,24.5z M231.1,43.1c-1,1.3-2.7,2-4.8,2
			c-2.1,0-3.7-0.7-4.9-2.1c-1.2-1.3-1.7-3.3-1.7-5.8c0-2.6,0.6-4.5,1.7-5.9c1.2-1.4,2.8-2.1,4.8-2.1c2,0,3.6,0.7,4.7,2
			c1.1,1.4,1.7,3.3,1.7,5.9C232.7,39.7,232.2,41.7,231.1,43.1z M268.9,29.7v-4.7h-5.7v-7.1l-0.2,0l-5.4,1.6l-0.1,0v5.4h-8.6v-3
			c0-1.4,0.3-2.5,1-3.2c0.6-0.7,1.5-1,2.7-1c0.8,0,1.6,0.2,2.5,0.6l0.2,0.1v-4.9l-0.1,0c-0.8-0.3-1.8-0.4-3.2-0.4
			c-1.7,0-3.2,0.4-4.5,1c-1.4,0.7-2.4,1.7-3.1,3.1c-0.7,1.3-1.1,2.8-1.1,4.5v3.4h-4v4.6h4v19.5h5.7V29.7h8.6v12.4
			c0,5.1,2.4,7.7,7.2,7.7c0.8,0,1.6-0.1,2.4-0.3c0.8-0.2,1.4-0.4,1.8-0.6l0,0v-4.7l-0.2,0.2c-0.3,0.2-0.7,0.4-1.2,0.5
			c-0.4,0.1-0.8,0.2-1.1,0.2c-1.1,0-1.9-0.3-2.5-0.9c-0.5-0.6-0.8-1.6-0.8-3.1V29.7H268.9z"/>
		<path class="st1" d="M5.3,4.3h26.8V31H5.3V4.3z"/>
		<path class="st1" d="M34.9,4.3h26.8V31H34.9V4.3z"/>
		<path class="st1" d="M5.3,33.8h26.8v26.7H5.3V33.8z"/>
		<path class="st1" d="M34.9,33.8h26.8v26.7H34.9V33.8z"/>
	</g>
</g>
</svg>
